<svg width="464" height="488" viewBox="0 0 464 488" fill="none" xmlns="http://www.w3.org/2000/svg">
<path d="M0 125C0 55.9644 55.9644 0 125 0C194.036 0 250 55.9644 250 125V330H50C22.3858 330 0 307.614 0 280V125Z" fill="#1F90FE"/>
<path d="M214 125C214 55.9644 269.964 0 339 0C408.036 0 464 55.9644 464 125V280C464 307.614 441.614 330 414 330H214V125Z" fill="#1F90FE"/>
<rect x="81.1426" y="158" width="20" height="20" transform="rotate(45 81.1426 158)" fill="white"/>
<rect x="81.1426" y="144" width="20" height="20" transform="rotate(45 81.1426 144)" fill="white"/>
<rect x="189.143" y="158" width="20" height="20" transform="rotate(45 189.143 158)" fill="white"/>
<rect x="189.143" y="144" width="20" height="20" transform="rotate(45 189.143 144)" fill="white"/>
<path d="M168.258 96.5C211.858 150.1 194.5 207.5 162.5 207.5C172.5 239 183 276 196.758 330H142.258V114.5H153.758C156.424 110.167 163.058 100.5 168.258 96.5Z" fill="white"/>
<path d="M101.758 96.5C58.1578 150.1 75.5159 207.5 107.516 207.5C97.5159 239 87.0159 276 73.2578 330H127.758V114.5H116.258C113.591 110.167 106.958 100.5 101.758 96.5Z" fill="white"/>
<rect x="113" y="114" width="45" height="216" fill="white"/>
<ellipse cx="116" cy="153" rx="7" ry="9" fill="#043054"/>
<ellipse cx="154" cy="153" rx="7" ry="9" fill="#043054"/>
<path d="M132.549 164.474C133.744 162.78 136.256 162.78 137.451 164.474L141.189 169.77C142.591 171.758 141.17 174.5 138.738 174.5H131.262C128.83 174.5 127.409 171.758 128.811 169.77L132.549 164.474Z" fill="#043054"/>
<rect x="108.959" y="137" width="20" height="11" transform="rotate(5 108.959 137)" fill="white"/>
<rect width="20" height="11" transform="matrix(-0.996195 0.0871557 0.0871557 0.996195 159.924 137)" fill="white"/>
<path d="M359.258 96.4998C402.858 150.1 385.5 207.5 353.5 207.5C363.5 239 374 276 387.758 330H333.258V114.5H344.758C347.424 110.166 354.058 100.5 359.258 96.4998Z" fill="white"/>
<path d="M292.758 96.4998C249.158 150.1 266.516 207.5 298.516 207.5C288.516 239 278.016 276 264.258 330H318.758V114.5H307.258C304.591 110.166 297.958 100.5 292.758 96.4998Z" fill="white"/>
<rect x="304" y="114" width="45" height="216" fill="white"/>
<path d="M392.214 101.731C383.907 90.3776 362.5 91.5 357 98.5002L384.094 129.251C390.262 124.809 400.521 113.085 392.214 101.731Z" fill="white"/>
<path d="M259.429 101.732C267.736 90.3776 289.5 91.4998 295 98.5L267.549 129.251C261.381 124.809 251.122 113.085 259.429 101.732Z" fill="white"/>
<ellipse cx="306" cy="153" rx="7" ry="9" fill="#043054"/>
<ellipse cx="346" cy="153" rx="7" ry="9" fill="#043054"/>
<path d="M334.487 168.389C330.837 173.563 323.164 173.563 319.513 168.389C318.656 167.175 319.524 165.5 321.01 165.5L332.99 165.5C334.476 165.5 335.344 167.175 334.487 168.389Z" fill="#043054"/>
<path d="M357.883 156L337.959 157.743L338.918 168.701L358.842 166.958L357.883 156Z" fill="white"/>
<path d="M296.959 157L316.883 158.743L315.924 169.701L296 167.958L296.959 157Z" fill="white"/>
<path d="M90.32 417.2L91.4 425.12C91.88 427.64 90.92 428.84 88.88 429.32C77.36 431.72 56.96 432.92 42.2 432.8C40.04 432.8 38.6 431.36 38.6 429.2V419.36C38.6 417.2 40.04 415.76 42.2 415.76H44.6L43.88 390.92H42.2C40.04 391.04 38.6 389.48 38.6 387.32V377.48C38.6 375.32 40.04 373.88 42.2 373.88L86.12 374.12C88.28 374.12 89.72 375.56 89.72 377.72V386.24C89.72 388.4 88.28 389.72 86.12 389.84L84.08 389.96L83.48 415.04L86.36 414.8C88.88 414.68 89.96 415.04 90.32 417.2ZM138.44 464.96L134.72 475.64C134 477.44 132.32 478.16 129.68 477.8C118.88 476.24 106.4 472.52 95.84 464.84C87.8 471.56 77.24 476.48 65.96 478.76C63.56 479.24 61.28 478.64 60.32 476.72L56.96 468.92C56 466.88 56.72 464.36 59.24 463.76C74.96 459.8 88.16 449.84 89.48 438.2C89.96 434.48 91.52 432.8 94.28 432.8H106.4C109.64 432.8 111.32 435.08 111.08 438.2C110.72 443.24 109.16 447.92 106.64 452.36C115.88 457.28 127.04 458.72 136.16 460.4C138.44 460.76 139.04 463.28 138.44 464.96ZM110.12 429.56H100.16C97.76 429.56 96.56 428.36 96.56 425.96L96.2 410.36H91.28C88.76 410.36 87.08 408.68 87.08 406.16V397.76C87.08 395.24 88.76 393.56 91.28 393.56H95.84L95.36 374C95.36 371.6 96.44 370.4 98.84 370.4H111.68C114.08 370.4 115.28 371.6 115.16 374L113.72 425.96C113.72 428.36 112.52 429.56 110.12 429.56ZM132.92 433.16H122.96C120.56 433.16 119.36 431.96 119.36 429.56V372.8C119.36 370.4 120.44 369.2 122.84 369.2H135.68C138.08 369.2 139.28 370.4 139.16 372.8L136.52 429.56C136.52 431.96 135.32 433.16 132.92 433.16ZM66.8 415.64L66.68 390.32L61.4 390.44L61.16 415.64H66.8ZM273.099 477.92L210.459 478.28C207.339 478.28 205.179 476 205.059 472.88L204.699 453.2C204.579 450.08 206.979 447.92 210.099 447.8L254.259 446.96L254.379 441.44L207.459 442.16C205.179 442.16 203.859 440.6 203.859 438.56V431.48C203.859 429.08 205.059 427.88 207.459 427.88L270.459 427.04C273.939 426.92 275.979 428.96 275.859 432.44L275.139 453.56C275.019 456.68 272.859 458.84 269.739 458.96L225.819 459.32V464.36L273.219 464.96C275.379 464.96 276.819 466.4 276.819 468.56L276.699 474.32C276.699 476.48 275.259 477.92 273.099 477.92ZM273.339 423.56H260.859C258.459 423.56 257.259 422.36 257.259 419.96L256.539 372.8C256.539 370.4 257.619 369.2 260.019 369.2H274.659C277.059 369.2 278.259 370.4 278.139 372.8L276.939 419.96C276.819 422.36 275.739 423.56 273.339 423.56ZM236.019 421.52L196.419 422C191.979 422 189.339 419.24 189.219 414.8L187.659 378.56C187.539 374.12 190.419 371.36 194.859 371.36L237.099 371.12C241.539 371.12 244.299 373.88 244.179 378.32L243.219 414.32C243.099 418.76 240.459 421.52 236.019 421.52ZM225.339 405.32V387.68H206.499L206.739 405.44L225.339 405.32ZM414.897 464.96H403.137C400.737 464.96 399.537 463.76 399.537 461.36V376.4C399.537 374 400.617 372.8 403.017 372.8H417.657C420.057 372.8 421.257 374 421.137 376.4L418.497 461.36C418.497 463.76 417.297 464.96 414.897 464.96ZM389.817 434.84L391.617 444.8C391.977 447.08 391.137 448.4 389.097 449C376.497 452.48 355.497 454.28 339.657 454.04C334.257 453.92 331.257 451.16 331.257 445.76V412.28C331.257 406.64 334.617 403.88 339.537 403.88L365.697 403.76L365.817 391.88H337.257C334.737 391.88 333.057 390.2 333.057 387.68V378.32C333.057 375.8 334.737 374.12 337.257 374.12L378.657 374.36C383.577 374.36 387.057 377.12 386.937 382.76L386.337 413.24C386.217 418.52 383.457 421.52 377.937 421.64L352.257 422V434.96C362.937 435.2 375.057 434.36 385.857 432.44C388.377 431.96 389.457 432.68 389.817 434.84Z" fill="#1F90FE"/>
</svg>
